<?xml version="1.0" encoding="UTF-8"?><svg id="layout" xmlns="http://www.w3.org/2000/svg" viewBox="0 0 60.13 60.91"><defs><style>.cls-1{stroke-width:.87px;}.cls-1,.cls-2,.cls-3{stroke:#2a5987;stroke-miterlimit:10;}.cls-1,.cls-3{fill:none;}.cls-2{fill:#fff;}.cls-2,.cls-3{stroke-width:2.62px;}.cls-3{stroke-linecap:round;}</style></defs><path class="cls-2" d="M47.37,41.76V10.64c-.01-5.15-4.19-9.33-9.34-9.33H10.64C5.49,1.31,1.31,5.49,1.31,10.64V50.27c0,5.15,4.18,9.33,9.33,9.33H52.19c5.15,0,6.63-2.82,6.63-9.33v-8.48l-11.45-.03Z"/><path class="cls-2" d="M52.19,59.52c-4.35,0-4.82-4.59-4.82-9.25v-8.09"/><path class="cls-1" d="M7.22,11.12h3.71c1.15,0,2.08,.93,2.08,2.08v3.71c0,1.15-.93,2.08-2.08,2.08h-3.71c-1.15,0-2.08-.93-2.08-2.08v-3.71c0-1.15,.93-2.08,2.08-2.08Z"/><line class="cls-3" x1="16.76" y1="13.02" x2="40.75" y2="13.02"/><line class="cls-3" x1="16.76" y1="17.24" x2="27.39" y2="17.24"/><path class="cls-1" d="M7.22,26.86h3.71c1.15,0,2.08,.93,2.08,2.08v3.71c0,1.15-.93,2.08-2.08,2.08h-3.71c-1.15,0-2.08-.93-2.08-2.08v-3.71c0-1.15,.93-2.08,2.08-2.08Z"/><line class="cls-3" x1="16.76" y1="28.75" x2="40.75" y2="28.75"/><line class="cls-3" x1="16.76" y1="32.98" x2="27.39" y2="32.98"/><path class="cls-1" d="M7.22,41.43h3.71c1.15,0,2.08,.93,2.08,2.08v3.71c0,1.15-.93,2.08-2.08,2.08h-3.71c-1.15,0-2.08-.93-2.08-2.08v-3.71c0-1.15,.93-2.08,2.08-2.08Z"/><line class="cls-3" x1="16.76" y1="43.32" x2="40.75" y2="43.32"/><line class="cls-3" x1="16.76" y1="47.55" x2="27.39" y2="47.55"/></svg>