<?xml version="1.0" encoding="UTF-8"?><svg id="layout" xmlns="http://www.w3.org/2000/svg" viewBox="0 0 58.3 62.68"><defs><style>.cls-1{stroke-width:3.85px;}.cls-1,.cls-2{fill:none;stroke:#203a72;stroke-linecap:round;stroke-miterlimit:10;}.cls-2{stroke-width:3.73px;}.cls-3{fill:#f7f9fc;}.cls-4{fill:#203a72;}</style></defs><circle class="cls-3" cx="29.15" cy="32.49" r="21.36"/><path class="cls-2" d="M18.39,14.35c3.13-1.84,6.79-2.9,10.68-2.9,11.67,0,21.12,9.46,21.12,21.12s-9.46,21.12-21.12,21.12S7.95,44.24,7.95,32.57c0-.32,0-.63,.02-.94"/><polyline class="cls-1" points="28.2 25.26 28.2 36.29 36.04 36.29"/><path class="cls-4" d="M18.52,8.71l-4.32,7.01c-.42,.69,.03,1.58,.84,1.64l8.08,.61c.83,.06,1.41-.8,1.05-1.55l-3.76-7.62c-.37-.76-1.44-.81-1.88-.09Z"/></svg>