<?xml version="1.0" encoding="UTF-8"?><svg id="layout" xmlns="http://www.w3.org/2000/svg" viewBox="0 0 31.18 27.38"><defs><style>.cls-1{fill:#2a5987;}</style></defs><path class="cls-1" d="M25.46,22.52H5.72c0,.83,0,1.67,0,2.5-.01,1.66-.68,2.33-2.3,2.34C.31,27.39,0,27.1,0,24,0,20.67,.03,17.35,0,14.02c-.01-1.65,.59-2.89,2.03-3.74,.27-.16,.5-.5,.61-.81,.66-1.81,1.26-3.63,1.91-5.45C5.45,1.52,7.56,.02,10.22,0c3.59-.01,7.18-.01,10.76,0,2.61,0,4.73,1.5,5.61,3.95,.64,1.78,1.22,3.58,1.88,5.35,.15,.41,.5,.82,.86,1.07,1.16,.81,1.82,1.87,1.83,3.28,.02,3.88,.02,7.76,0,11.64,0,1.33-.75,2.02-2.09,2.06-2.98,.1-3.8-.15-3.62-3.45,.02-.45,0-.89,0-1.39Zm-.81-12.76c-.59-1.68-1.09-3.23-1.68-4.74-.29-.76-.94-1.15-1.78-1.15-3.75,0-7.5-.03-11.25,.04-.53,0-1.34,.38-1.53,.81-.74,1.6-1.29,3.29-1.94,5.04H24.66ZM5.84,17.63c1.2-.02,2.03-.88,1.99-2.05-.04-1.14-.86-1.91-2.03-1.91-1.22,0-2.04,.81-2.03,2.01,.01,1.19,.84,1.98,2.07,1.96Zm19.5,0c1.22,.01,2.07-.8,2.07-1.97,0-1.18-.84-2-2.05-2-1.18,0-1.98,.77-2.01,1.92-.03,1.2,.78,2.03,1.99,2.04Z"/></svg>