<?xml version="1.0" encoding="UTF-8"?><svg id="layout" xmlns="http://www.w3.org/2000/svg" viewBox="0 0 31.89 32.08"><defs><style>.cls-1{fill:#2a5987;}</style></defs><path class="cls-1" d="M29.88,16.11c0,3.04,0,6.1,0,9.17,0,1.85-.23,2.18-1.96,2.82-.2,1.56,.56,3.76-2.16,3.87-1.1,.05-2.49,.45-3.17-.65-.55-.89-.55-2.11-.81-3.27H9.87c0,.61,.02,1.23,0,1.84-.05,1.36-.77,2.06-2.14,2.1-.1,0-.2,0-.3,0-3.07,.2-3.62-.81-3.42-3.24,.02-.27-.3-.72-.56-.82-1.04-.39-1.42-1.11-1.42-2.16,.01-3.2,0-6.4,0-9.74C.04,15.83-.06,14.42,.02,12.88c.04-.67,.05-1.34,0-2-.11-1.5,.22-2.69,2.01-2.9,0-.79,.06-1.49-.01-2.18-.16-1.62,.57-2.81,1.97-3.38,1.93-.78,3.91-1.55,5.95-1.89,4.87-.81,9.76-.71,14.58,.51,1.24,.32,2.44,.87,3.59,1.47,1.24,.65,1.91,1.71,1.8,3.2-.06,.73,0,1.46,0,2.17,1.86,.79,2,1.01,2,3.02,0,.8,0,1.6,0,2.4,0,1.83-.22,2.14-2,2.82Zm-14.94,1.9V7.98c-2.48,0-4.88-.02-7.27,.01-.99,.02-1.76,.78-1.78,1.81-.05,2.13-.04,4.26,0,6.39,.02,.94,.69,1.78,1.56,1.81,2.48,.06,4.97,.02,7.5,.02Zm2-10.03v10.04c2.53,0,4.99,.04,7.45-.02,.91-.02,1.6-.84,1.63-1.86,.05-2.1,.05-4.2,0-6.3-.03-1.1-.8-1.83-1.86-1.85-2.37-.03-4.73,0-7.21,0Zm-.96-4.01c-1.56,0-3.13,.01-4.69,0-.74,0-1.39,.13-1.4,1.02,0,.89,.62,1.05,1.37,1.04,3.13-.01,6.26-.01,9.38,0,.77,0,1.37-.21,1.35-1.07-.02-.81-.6-1.01-1.33-1-1.56,.02-3.13,0-4.69,0ZM6.9,25.04c1.24,.01,2.11-.81,2.12-2.01,0-1.2-.85-2.05-2.09-2.04-1.2,0-2.03,.79-2.06,1.96-.03,1.23,.8,2.08,2.03,2.09Zm18.06,0c1.23,0,2.09-.86,2.07-2.06-.02-1.16-.85-1.98-2.04-2-1.26-.02-2.1,.79-2.11,2.01,0,1.22,.83,2.05,2.08,2.05Z"/></svg>