<?xml version="1.0" encoding="UTF-8"?><svg id="layout" xmlns="http://www.w3.org/2000/svg" viewBox="0 0 61.46 69.94"><defs><style>.cls-1{fill:#14a0de;}.cls-2{fill:#203a72;}</style></defs><g><path class="cls-2" d="M39.62,54.18l-1.83-6.83c-.24-.9-.39-1.83-.35-2.76,0,0,0-.01,0-.02l.46-10.82,.18-.07c8.41-3.33,9.38-16.07,9.42-16.61,.09-1.35-.93-2.53-2.28-2.62-1.38-.05-2.54,.94-2.63,2.29-.04,.52-1.08,12.83-8.83,12.83h-4.57c-7.84,0-8.82-12.71-8.83-12.84-.1-1.34-1.3-2.37-2.63-2.28-1.35,.1-2.37,1.27-2.28,2.62,.04,.54,1,13.29,9.42,16.61l.18,.07,.46,10.88c.03,.6,0,1.21-.07,1.81-.03,.32-.14,.63-.31,.91l-3.99,6.85c-.34,.58-.47,1.26-.37,1.93l1.73,11.3c.22,1.46,1.48,2.5,2.91,2.5,.15,0,.3-.01,.45-.03,1.61-.25,2.71-1.75,2.46-3.36l-1.57-10.28,4.38-7.51c.24-.41,.86-.33,.98,.13l2.02,7.56c.13,.49,.39,.94,.75,1.31l8.57,8.69c.57,.58,1.34,.88,2.1,.88,.82,0,1.64-.34,2.23-1.03,1.02-1.18,.83-3-.26-4.11l-7.9-8.01Z"/><path class="cls-2" d="M31.47,27.93c3.08,0,5.57-2.5,5.57-5.57s-2.5-5.57-5.57-5.57-5.57,2.5-5.57,5.57,2.5,5.57,5.57,5.57Z"/></g><path class="cls-2" d="M6.33,28.7s-.22,7.97-6.33,8.18c0,0,7.31,.87,7.53,7.75,0,0-.22-7.86,6-8.51,0,0-6.98,.11-7.2-7.42Z"/><path class="cls-2" d="M56.63,14.62s-.15,5.35-4.25,5.49c0,0,4.91,.59,5.05,5.2,0,0-.15-5.27,4.03-5.71,0,0-4.69,.07-4.83-4.98Z"/><path class="cls-2" d="M50.28,40.81s-.18,6.42-5.1,6.6c0,0,5.9,.7,6.07,6.25,0,0-.18-6.34,4.84-6.86,0,0-5.63,.09-5.81-5.98Z"/><path class="cls-1" d="M31.6,10.19c1.18,0,2.13-.95,2.13-2.13V2.13c0-1.18-.95-2.13-2.13-2.13s-2.13,.95-2.13,2.13v5.93c0,1.18,.95,2.13,2.13,2.13Z"/><path class="cls-1" d="M39.46,11.78c.27,.11,.55,.17,.83,.17,.83,0,1.62-.49,1.96-1.3l2.32-5.46c.46-1.08-.05-2.33-1.13-2.79-1.08-.46-2.33,.05-2.79,1.13l-2.32,5.46c-.46,1.08,.05,2.33,1.13,2.79Z"/><path class="cls-1" d="M20.91,10.65c.34,.81,1.13,1.3,1.96,1.3,.28,0,.56-.05,.83-.17,1.08-.46,1.59-1.71,1.13-2.79l-2.32-5.46c-.46-1.08-1.71-1.59-2.79-1.13-1.08,.46-1.59,1.71-1.13,2.79l2.32,5.46Z"/></svg>