<?xml version="1.0" encoding="UTF-8"?><svg id="layout" xmlns="http://www.w3.org/2000/svg" viewBox="0 0 58.3 62.68"><defs><style>.cls-1{fill:#fff;fill-rule:evenodd;}.cls-2{fill:#2a5987;}</style></defs><rect class="cls-2" x="1.81" y="16.24" width="54.68" height="43.48" rx="10.54" ry="10.54" transform="translate(-6.63 6.17) rotate(-10.85)"/><path class="cls-1" d="M40.47,40.12l-11.67,10.09c-3.13,2.71-8.01,1.01-8.79-3.05l-2.91-15.16c-.78-4.06,3.13-7.44,7.04-6.09l14.58,5.06c3.91,1.36,4.88,6.43,1.75,9.14Z"/><path class="cls-2" d="M19.94,15.41c-.38,.03-.78-.08-1.11-.33L8.24,7.1c-.72-.54-.87-1.57-.32-2.29,.54-.72,1.57-.87,2.29-.32l10.59,7.98c.72,.54,.87,1.57,.32,2.29-.3,.39-.73,.61-1.19,.65Z"/><path class="cls-2" d="M27.87,13.05c-.31,.02-.63-.04-.93-.21-.79-.44-1.07-1.44-.62-2.23L31.83,.83c.44-.79,1.44-1.07,2.23-.62,.79,.44,1.07,1.44,.62,2.23l-5.5,9.78c-.28,.5-.78,.79-1.3,.83Z"/></svg>