<?xml version="1.0" encoding="UTF-8"?><svg id="layout" xmlns="http://www.w3.org/2000/svg" viewBox="0 0 57.68 63.69"><defs><style>.cls-1,.cls-2{fill:#fff;}.cls-2{stroke-width:2.11px;}.cls-2,.cls-3,.cls-4{stroke:#2a5987;stroke-miterlimit:10;}.cls-3{fill:none;stroke-linecap:round;stroke-width:2.11px;}.cls-4{fill:#2a5987;stroke-width:.74px;}</style></defs><path class="cls-2" d="M7.63,27.54H50.05c3.63,0,6.58,2.95,6.58,6.58v21.94c0,3.63-2.95,6.58-6.58,6.58H7.63c-3.63,0-6.58-2.95-6.58-6.58v-21.94c0-3.63,2.95-6.58,6.58-6.58Z"/><path class="cls-4" d="M36.72,15.65c0,12.82-15.28,27.11-15.28,27.11,0,0-15.28-14.54-15.28-27.11C6.16,7.21,13,.37,21.44,.37s15.28,6.84,15.28,15.28Z"/><circle class="cls-1" cx="21.44" cy="14.91" r="7.64" transform="translate(-4.06 9.29) rotate(-22.39)"/><line class="cls-3" x1="8.59" y1="49.09" x2="34.08" y2="49.09"/><line class="cls-3" x1="8.44" y1="55.21" x2="48.95" y2="55.21"/></svg>