<?xml version="1.0" encoding="UTF-8"?><svg id="layout" xmlns="http://www.w3.org/2000/svg" viewBox="0 0 60.32 56.58"><defs><style>.cls-1{fill:#fff;stroke-width:2.62px;}.cls-1,.cls-2{stroke:#2a5987;stroke-miterlimit:10;}.cls-3{opacity:.28;}.cls-3,.cls-4{fill:#2a5987;}.cls-2{fill:none;stroke-linecap:round;stroke-width:3.5px;}</style></defs><rect class="cls-1" x="1.31" y="7.48" width="57.7" height="47.79" rx="10.78" ry="10.78"/><path class="cls-4" d="M13.41,6.9H46.63c6.84,0,12.39,5.55,12.39,12.39v3.64H1.02v-3.64C1.02,12.45,6.57,6.9,13.41,6.9Z"/><line class="cls-2" x1="19.96" y1="1.75" x2="19.96" y2="10.69"/><line class="cls-2" x1="38.61" y1="1.75" x2="38.61" y2="10.69"/><rect class="cls-4" x="8.99" y="26.91" width="8.26" height="8.26" rx="2.33" ry="2.33"/><rect class="cls-3" x="25.89" y="26.91" width="8.26" height="8.26" rx="2.33" ry="2.33"/><rect class="cls-4" x="42.3" y="26.91" width="8.26" height="8.26" rx="2.33" ry="2.33"/><rect class="cls-3" x="8.99" y="40.6" width="8.26" height="8.26" rx="2.33" ry="2.33"/><rect class="cls-4" x="25.89" y="40.6" width="8.26" height="8.26" rx="2.33" ry="2.33"/><rect class="cls-3" x="42.3" y="40.6" width="8.26" height="8.26" rx="2.33" ry="2.33"/></svg>